<?xml version="1.0" encoding="utf-8"?>
<!-- Generator: Adobe Illustrator 24.0.2, SVG Export Plug-In . SVG Version: 6.00 Build 0)  -->
<svg version="1.1" id="Layer_1" xmlns="http://www.w3.org/2000/svg" xmlns:xlink="http://www.w3.org/1999/xlink" x="0px" y="0px"
	 viewBox="0 0 40 40" style="enable-background:new 0 0 40 40;" xml:space="preserve">
<style type="text/css">
	.st0{fill:#3F4AFF;}
	.st1{display:none;fill:#FFFFFF;}
	.st2{display:none;fill:none;}
	.st3{fill:#271FC6;}
</style>
<g>
	<polygon class="st0" points="13.8,4.1 5.8,4.1 8.9,14.4 16.7,14.4 	"/>
	<path class="st0" d="M29.8,14.4c0.1,0,0.1,0,0.2,0l0,0L33.1,4h-6.3l-3,10.4h5.8C29.6,14.4,29.7,14.4,29.8,14.4z"/>
	<path class="st0" d="M22,21.6c-0.1,0-0.1,0.1-0.2,0.1l0,0l-1.5,5.2l-1.5-5.3h0.1l0,0h-7.7L15.4,36h8.1l4.4-14.4H22z"/>
</g>
<polyline class="st1" points="16.6,30 40,30 40,38 1,38 1,30 8.8,30 "/>
<line class="st2" x1="8.8" y1="14" x2="16.6" y2="14"/>
<g>
	<path class="st3" d="M2.2,15.7h1c0.4,0,0.7,0,0.9,0.1c0.2,0.1,0.4,0.2,0.5,0.4c0.1,0.2,0.2,0.4,0.2,0.7c0,0.2-0.1,0.4-0.2,0.6
		c-0.1,0.2-0.3,0.3-0.5,0.4c0.3,0.1,0.5,0.2,0.6,0.3c0.1,0.1,0.3,0.3,0.3,0.4c0.1,0.2,0.1,0.4,0.1,0.6c0,0.4-0.1,0.7-0.4,1
		c-0.3,0.3-0.7,0.4-1.2,0.4H2.2V15.7z M2.7,16.2v1.6H3c0.3,0,0.6,0,0.8-0.1c0.2-0.1,0.3-0.2,0.4-0.3c0.1-0.1,0.1-0.3,0.1-0.5
		c0-0.2-0.1-0.4-0.2-0.5c-0.2-0.1-0.4-0.2-0.8-0.2H2.7z M2.7,18.3v1.9h0.6c0.4,0,0.6,0,0.8-0.1c0.2-0.1,0.3-0.2,0.4-0.3
		s0.2-0.3,0.2-0.5c0-0.2-0.1-0.4-0.2-0.6s-0.3-0.3-0.6-0.3c-0.2,0-0.5-0.1-0.9-0.1H2.7z"/>
	<path class="st3" d="M6.5,15.7h2.9v0.5H7v1.6h2.4v0.5H7v2h2.4v0.5H6.5V15.7z"/>
	<path class="st3" d="M10.6,15.7h0.5v2.1h2.6v-2.1h0.5v5h-0.5v-2.4h-2.6v2.4h-0.5V15.7z"/>
	<path class="st3" d="M15.8,15.7h3.6v5h-0.5v-4.5h-2.6v4.5h-0.5V15.7z"/>
	<path class="st3" d="M20.9,15.7h1c0.6,0,1,0,1.2,0.1c0.3,0.1,0.5,0.2,0.7,0.4c0.2,0.2,0.3,0.5,0.3,0.8c0,0.3-0.1,0.6-0.3,0.8
		c-0.2,0.2-0.4,0.4-0.7,0.4c-0.2,0.1-0.7,0.1-1.3,0.1h-0.4v2.3h-0.5V15.7z M21.4,16.2v1.7l0.9,0c0.3,0,0.6,0,0.8-0.1
		c0.2-0.1,0.3-0.2,0.4-0.3c0.1-0.1,0.1-0.3,0.1-0.5c0-0.2,0-0.3-0.1-0.5c-0.1-0.1-0.2-0.2-0.4-0.3s-0.4-0.1-0.7-0.1H21.4z"/>
	<path class="st3" d="M27.8,15.6c0.8,0,1.4,0.3,1.9,0.8s0.8,1.1,0.8,1.9c0,0.7-0.3,1.4-0.8,1.9s-1.1,0.8-1.9,0.8
		c-0.7,0-1.4-0.3-1.9-0.8c-0.5-0.5-0.8-1.1-0.8-1.9c0-0.5,0.1-0.9,0.4-1.3s0.6-0.7,1-1C26.9,15.7,27.3,15.6,27.8,15.6z M27.8,16.1
		c-0.4,0-0.7,0.1-1.1,0.3c-0.3,0.2-0.6,0.5-0.8,0.8c-0.2,0.3-0.3,0.7-0.3,1.1c0,0.6,0.2,1.1,0.6,1.5c0.4,0.4,0.9,0.6,1.5,0.6
		c0.4,0,0.8-0.1,1.1-0.3c0.3-0.2,0.6-0.4,0.8-0.8c0.2-0.3,0.3-0.7,0.3-1.1c0-0.4-0.1-0.8-0.3-1.1c-0.2-0.3-0.4-0.6-0.8-0.8
		S28.2,16.1,27.8,16.1z"/>
	<path class="st3" d="M31.6,20.8l0.7-5h0.1l2,4.1l2-4.1h0.1l0.7,5h-0.5l-0.5-3.6l-1.8,3.6h-0.1l-1.8-3.6l-0.5,3.6H31.6z"/>
</g>
</svg>
