<?xml version="1.0" encoding="utf-8"?>
<!-- Generator: Adobe Illustrator 24.0.2, SVG Export Plug-In . SVG Version: 6.00 Build 0)  -->
<svg version="1.1" id="Layer_1" xmlns="http://www.w3.org/2000/svg" xmlns:xlink="http://www.w3.org/1999/xlink" x="0px" y="0px"
	 viewBox="0 0 40 40" style="enable-background:new 0 0 40 40;" xml:space="preserve">
<style type="text/css">
	.st0{fill:#3F4AFF;}
	.st1{display:none;fill:#FFFFFF;}
	.st2{fill:#0B00C9;}
</style>
<g>
	<polygon class="st0" points="13.8,4.1 5.8,4.1 8.9,14.4 16.7,14.4 	"/>
	<path class="st0" d="M29.8,14.4c0.1,0,0.1,0,0.2,0h0l3.1-10.4h-6.3l-3,10.4h5.8C29.6,14.4,29.7,14.4,29.8,14.4z"/>
	<path class="st0" d="M22,21.6c-0.1,0-0.1,0.1-0.2,0.1c0,0,0,0,0,0l-1.5,5.2l-1.5-5.3h0.1c0,0,0,0,0,0l-7.7,0L15.4,36h8.1l4.4-14.4
		L22,21.6z"/>
</g>
<polyline class="st1" points="16.6,30 40,30 40,38 1,38 1,30 8.8,30 "/>
<line class="st1" x1="8.8" y1="14" x2="16.6" y2="14"/>
<g>
	<path class="st2" d="M3.5,15.8h2.2c0.4,0,0.7,0,0.9,0.1s0.4,0.2,0.5,0.4s0.2,0.4,0.2,0.6c0,0.5-0.3,0.9-0.8,1
		c0.3,0.1,0.6,0.2,0.7,0.4c0.2,0.2,0.2,0.5,0.2,0.7c0,0.3-0.1,0.7-0.4,0.9s-0.7,0.4-1.3,0.4H3.5V15.8z M4.6,16.7v1h0.8
		c0.3,0,0.5-0.1,0.6-0.2c0.1-0.1,0.1-0.2,0.1-0.3c0-0.1,0-0.2-0.1-0.3c-0.1-0.1-0.1-0.1-0.2-0.2c-0.1,0-0.2,0-0.5,0H4.6z M4.6,18.5
		v1.1h0.8c0.3,0,0.5-0.1,0.6-0.2s0.2-0.2,0.2-0.4c0-0.2-0.1-0.3-0.2-0.4s-0.3-0.2-0.6-0.2H4.6z"/>
	<path class="st2" d="M11.4,15.8H8.1v4.7h3.3v-0.9H9.2v-1h1.7v-0.9H9.8c0,0-0.1,0-0.1,0c0,0-0.1,0-0.1,0H9.2v-0.5c0,0,0,0,0,0v-0.5
		h0.4c0,0,0.1,0,0.1,0c0,0,0.1,0,0.1,0h1.7V15.8z"/>
	<path class="st2" d="M15.7,15.8v4.7h-1.1v-1.9h-1.5v1.9h-1.1v-4.7h1.1v1.8h1.5v-1.8H15.7z"/>
	<path class="st2" d="M16.6,15.8v4.7h1.1v-1.4c0-0.1,0-0.3,0-0.4v-2.1H19v3.8h1.1v-4.7H16.6z"/>
	<path class="st2" d="M22.1,18.8v1.7H21v-4.7h1.8c0.4,0,0.7,0,0.9,0.1c0.2,0.1,0.4,0.2,0.6,0.5c0.2,0.2,0.3,0.5,0.3,0.8
		c0,0.2,0,0.5-0.1,0.7c-0.1,0.2-0.2,0.4-0.4,0.5s-0.3,0.2-0.5,0.2s-0.4,0.1-0.7,0.1H22.1z M22.1,17.9h0.7c0.3,0,0.5-0.1,0.6-0.2
		s0.2-0.3,0.2-0.4c0-0.2-0.1-0.3-0.2-0.5c-0.1-0.1-0.3-0.2-0.6-0.2h-0.7V17.9z"/>
	<path class="st2" d="M28.8,17.1c-0.1-0.2-0.2-0.4-0.3-0.6c-0.3-0.5-0.8-0.7-1.5-0.7c-0.6,0-1.1,0.2-1.5,0.7s-0.5,1-0.5,1.7
		c0,0.7,0.2,1.2,0.5,1.7s0.8,0.7,1.5,0.7c0.7,0,1.2-0.2,1.5-0.7s0.5-1,0.5-1.7c0-0.2,0-0.4-0.1-0.5C28.8,17.5,28.8,17.3,28.8,17.1z
		 M27,19.7c-0.6,0-0.9-0.5-0.9-1.5c0-1,0.3-1.5,0.9-1.5c0.6,0,0.8,0.5,0.8,1.5C27.8,19.2,27.6,19.7,27,19.7z"/>
	<path class="st2" d="M33.1,15.8l-0.9,2.8l-0.8-2.8h-1.7V17c0,0.1,0,0.3,0,0.4v3.1h0.9v-3.8l1.2,3.8h0.7l1.2-3.8v3.8h1.1v-4.7H33.1z
		"/>
</g>
</svg>
